<?xml version="1.0" encoding="UTF-8"?>
<svg id="Capa_2" data-name="Capa 2" xmlns="http://www.w3.org/2000/svg" viewBox="0 0 154.88 68.2">
  <defs>
    <style>
      .cls-1 {
        font-family: GillSans-Bold, 'Gill Sans';
        font-size: 13.3px;
        font-weight: 700;
      }

      .cls-1, .cls-2, .cls-3 {
        fill: #fff;
      }

      .cls-3 {
        fill-rule: evenodd;
      }
    </style>
  </defs>
  <g id="Capa_1-2" data-name="Capa 1">
    <path class="cls-2" d="M112.17,64.8c-.44,0-.8,.14-1.08,.41-.28,.27-.42,.62-.42,1.05s.14,.75,.42,1.03c.28,.27,.64,.41,1.06,.41s.78-.14,1.07-.42c.29-.28,.43-.63,.43-1.04s-.14-.75-.43-1.02c-.29-.28-.64-.41-1.05-.41m-.02-.52c.59,0,1.08,.19,1.48,.56,.39,.37,.59,.84,.59,1.41s-.2,1.03-.6,1.4c-.4,.37-.9,.55-1.5,.55s-1.06-.18-1.44-.55c-.38-.37-.58-.83-.58-1.39s.19-1.04,.58-1.42c.39-.37,.88-.56,1.47-.56Zm-6.27,.54h-.68v2.84h.7c.27,0,.49-.02,.64-.06,.15-.04,.28-.09,.38-.14,.1-.06,.19-.13,.28-.21,.27-.27,.4-.62,.4-1.04s-.14-.75-.42-1c-.1-.1-.22-.18-.35-.24-.13-.06-.26-.1-.38-.12-.12-.02-.31-.03-.57-.03Zm-1.23,3.33v-3.82h1.29c.52,0,.93,.08,1.23,.23,.3,.16,.54,.38,.72,.69,.18,.3,.27,.63,.27,.99,0,.26-.05,.5-.15,.73-.1,.23-.24,.44-.42,.62-.19,.18-.4,.32-.65,.41-.14,.06-.28,.09-.4,.11-.12,.02-.35,.03-.69,.03h-1.21Zm-2.77-3.82h.52v3.82h-.47l-2.56-2.94v2.94h-.51v-3.82h.44l2.58,2.97v-2.97Zm-7.18,.47c-.44,0-.8,.14-1.08,.41-.28,.27-.42,.62-.42,1.05s.14,.75,.42,1.03c.28,.27,.64,.41,1.06,.41s.78-.14,1.07-.42c.29-.28,.43-.63,.43-1.04s-.14-.75-.43-1.02c-.29-.28-.64-.41-1.05-.41Zm-.02-.52c.59,0,1.08,.19,1.48,.56,.39,.37,.59,.84,.59,1.41s-.2,1.03-.6,1.4c-.4,.37-.9,.55-1.5,.55s-1.06-.18-1.44-.55c-.38-.37-.58-.83-.58-1.39s.19-1.04,.58-1.42c.39-.37,.88-.56,1.47-.56Zm-4.7,.05h.55v3.82h-.55v-1.66h-2.15v1.66h-.55v-3.82h.55v1.65h2.15v-1.65Zm-8.4,.47c-.44,0-.8,.14-1.08,.41-.28,.27-.42,.62-.42,1.05s.14,.75,.42,1.03c.28,.27,.64,.41,1.06,.41s.78-.14,1.07-.42c.29-.28,.43-.63,.43-1.04s-.14-.75-.43-1.02c-.29-.28-.64-.41-1.05-.41Zm-.02-.52c.59,0,1.08,.19,1.48,.56,.39,.37,.59,.84,.59,1.41s-.2,1.03-.59,1.4c-.4,.37-.9,.55-1.5,.55s-1.06-.18-1.44-.55c-.38-.37-.58-.83-.58-1.39s.19-1.04,.58-1.42c.39-.37,.88-.56,1.47-.56Zm-3.67-1.05l-.62,.82h-.31l.37-.82h.56Zm-1.03,1.1h.55v3.82h-.55v-3.82Zm-4.09,.47h-.16v1.21h.21c.28,0,.47-.02,.57-.07,.1-.05,.18-.12,.24-.21,.06-.1,.09-.2,.09-.33s-.03-.23-.1-.33c-.06-.1-.15-.17-.27-.21-.12-.04-.31-.06-.58-.06Zm-.71,3.36v-3.82h.96c.39,0,.69,.1,.92,.29,.23,.19,.34,.45,.34,.78,0,.22-.06,.41-.17,.58-.11,.16-.27,.28-.48,.36,.12,.08,.24,.19,.36,.33,.12,.14,.28,.38,.49,.73,.13,.22,.24,.38,.32,.49l.2,.27h-.65l-.17-.25s-.02-.02-.03-.05l-.11-.15-.17-.28-.18-.3c-.11-.16-.22-.28-.31-.37-.09-.09-.18-.16-.25-.2-.08-.04-.2-.06-.38-.06h-.14v1.66h-.55Zm-5.81-3.82h2.17v.49h-1.62v1.17h1.57v.49h-1.57v1.19h1.67v.49h-2.22v-3.82Zm-4.4,.49h-.68v2.84h.7c.27,0,.49-.02,.64-.06,.15-.04,.28-.09,.38-.14,.1-.06,.19-.13,.28-.21,.27-.27,.4-.62,.4-1.04s-.14-.75-.42-1c-.1-.1-.22-.18-.35-.24-.13-.06-.26-.1-.38-.12-.12-.02-.31-.03-.57-.03Zm-1.23,3.33v-3.82h1.29c.52,0,.93,.08,1.23,.23,.3,.16,.54,.38,.72,.69,.18,.3,.27,.63,.27,.99,0,.26-.05,.5-.15,.73-.1,.23-.24,.44-.42,.62-.19,.18-.4,.32-.65,.41-.14,.06-.28,.09-.4,.11-.12,.02-.35,.03-.69,.03h-1.21Zm-4.61-1.6l-.42-.25c-.26-.16-.45-.32-.56-.47-.11-.15-.17-.33-.17-.53,0-.3,.1-.55,.31-.73,.21-.19,.48-.28,.81-.28s.61,.09,.88,.27v.62c-.28-.27-.57-.4-.89-.4-.18,0-.33,.04-.44,.12-.12,.08-.17,.19-.17,.32,0,.12,.04,.22,.13,.32,.08,.1,.22,.21,.41,.32l.42,.25c.47,.28,.7,.63,.7,1.06,0,.31-.1,.56-.31,.75-.21,.19-.47,.29-.8,.29-.38,0-.72-.12-1.03-.35v-.7c.3,.37,.64,.56,1.03,.56,.17,0,.31-.05,.43-.14,.11-.1,.17-.22,.17-.36,0-.23-.17-.45-.5-.66Zm-4.09-.02l-.62-1.39-.57,1.39h1.19Zm-.8-2.23h.39l1.71,3.85h-.56l-.51-1.13h-1.63l-.48,1.13h-.56l1.64-3.85Zm-3.98,.02h.51v3.82h-.55v-2.98l-1.18,1.48h-.1l-1.19-1.48v2.98h-.55v-3.82h.51l1.27,1.57,1.27-1.57Zm-7.13,.47h-.16v1.21h.21c.28,0,.47-.02,.57-.07,.1-.05,.18-.12,.24-.21,.06-.1,.09-.2,.09-.33s-.03-.23-.1-.33c-.06-.1-.15-.17-.27-.21-.12-.04-.31-.06-.58-.06Zm-.71,3.36v-3.82h.96c.39,0,.69,.1,.92,.29,.23,.19,.34,.45,.34,.78,0,.22-.06,.41-.17,.58-.11,.16-.27,.28-.48,.36,.12,.08,.24,.19,.36,.33,.12,.14,.28,.38,.49,.73,.13,.22,.24,.38,.32,.49l.2,.27h-.65l-.17-.25s-.02-.02-.03-.05l-.11-.15-.17-.28-.18-.3c-.11-.16-.22-.28-.31-.37-.09-.09-.18-.16-.25-.2-.08-.04-.2-.06-.38-.06h-.14v1.66h-.55Zm-4.25-3.82h2.17v.49h-1.62v1.17h1.57v.49h-1.57v1.19h1.67v.49h-2.22v-3.82Zm-5.14,0h3.19v.49h-1.33v3.34h-.55v-3.34h-1.31v-.49Z"/>
    <path class="cls-2" d="M77.22,45.49h1.27l5.62,12.63h-1.84l-1.67-3.72h-5.34l-1.58,3.72h-1.84l5.39-12.63Zm2.63,7.31l-2.02-4.55-1.88,4.55h3.9Zm6.24,5.3v-12.54h4.23c1.71,0,3.06,.26,4.05,.77,.99,.51,1.79,1.26,2.38,2.26,.59,.99,.88,2.08,.88,3.25,0,.84-.16,1.64-.48,2.41-.33,.77-.79,1.44-1.39,2.02-.61,.6-1.32,1.05-2.13,1.36-.47,.18-.91,.31-1.3,.37-.4,.06-1.15,.1-2.26,.1h-3.97Zm4.04-10.94h-2.25v9.34h2.3c.9,0,1.6-.06,2.1-.18,.5-.12,.91-.28,1.24-.47,.33-.19,.64-.42,.91-.7,.89-.9,1.33-2.03,1.33-3.41s-.45-2.45-1.37-3.3c-.33-.32-.72-.58-1.15-.78-.44-.21-.85-.34-1.24-.4-.39-.07-1.02-.1-1.88-.1Zm16.5-1.78c1.94,0,3.56,.61,4.85,1.84,1.29,1.23,1.94,2.77,1.94,4.62s-.65,3.38-1.95,4.6c-1.3,1.21-2.95,1.82-4.93,1.82s-3.47-.61-4.73-1.82c-1.26-1.22-1.89-2.74-1.89-4.56s.64-3.43,1.91-4.66c1.27-1.23,2.88-1.84,4.82-1.84Zm.07,1.71c-1.44,0-2.62,.45-3.54,1.35-.93,.9-1.39,2.05-1.39,3.44s.46,2.48,1.39,3.38c.93,.9,2.09,1.35,3.49,1.35s2.57-.46,3.51-1.37c.94-.92,1.41-2.06,1.41-3.43s-.47-2.45-1.41-3.36c-.94-.91-2.09-1.36-3.46-1.36Zm9.56,11.03v-12.56h3.15c1.27,0,2.28,.32,3.03,.95,.75,.63,1.12,1.48,1.12,2.55,0,.73-.18,1.36-.55,1.9-.37,.53-.89,.93-1.57,1.2,.4,.26,.79,.62,1.18,1.08,.38,.46,.92,1.25,1.62,2.38,.44,.71,.79,1.25,1.05,1.61l.67,.9h-2.14l-.55-.83s-.06-.08-.11-.15l-.35-.49-.56-.92-.6-.98c-.37-.52-.71-.92-1.02-1.23-.31-.31-.59-.52-.83-.66-.25-.14-.67-.2-1.26-.2h-.47v5.47h-1.8Zm2.34-11.03h-.54v3.96h.68c.91,0,1.54-.08,1.87-.23,.34-.16,.6-.39,.79-.71,.19-.31,.28-.67,.28-1.07s-.1-.75-.31-1.07c-.21-.32-.51-.55-.89-.68-.38-.13-1.01-.2-1.89-.2Z"/>
    <path class="cls-2" d="M66.42,52.85l-1.37-.83c-.86-.52-1.47-1.04-1.83-1.54-.36-.51-.54-1.09-.54-1.75,0-.99,.34-1.79,1.03-2.41,.68-.62,1.58-.93,2.67-.93s2.01,.29,2.89,.88v2.04c-.91-.87-1.88-1.3-2.92-1.3-.59,0-1.07,.13-1.45,.41-.38,.27-.57,.62-.57,1.05,0,.38,.14,.73,.41,1.06,.28,.33,.72,.68,1.34,1.03l1.38,.81c1.53,.91,2.3,2.07,2.3,3.49,0,1.01-.34,1.83-1.01,2.46-.68,.63-1.55,.94-2.63,.94-1.24,0-2.37-.38-3.39-1.14v-2.28c.97,1.23,2.09,1.84,3.37,1.84,.56,0,1.03-.16,1.41-.47,.37-.31,.56-.71,.56-1.18,0-.77-.55-1.49-1.65-2.18"/>
    <path class="cls-2" d="M57.4,52.85l-1.37-.83c-.86-.52-1.47-1.04-1.83-1.54-.36-.51-.54-1.09-.54-1.75,0-.99,.34-1.79,1.03-2.41,.68-.62,1.58-.93,2.67-.93s2.01,.29,2.89,.88v2.04c-.91-.87-1.88-1.3-2.92-1.3-.59,0-1.07,.13-1.45,.41-.38,.27-.57,.62-.57,1.05,0,.38,.14,.73,.41,1.06,.28,.33,.72,.68,1.34,1.03l1.38,.81c1.53,.91,2.3,2.07,2.3,3.49,0,1.01-.34,1.83-1.01,2.46-.67,.63-1.55,.94-2.63,.94-1.24,0-2.37-.38-3.39-1.14v-2.28c.97,1.23,2.09,1.84,3.37,1.84,.56,0,1.03-.16,1.41-.47,.37-.31,.56-.71,.56-1.18,0-.77-.55-1.49-1.65-2.18"/>
    <path class="cls-2" d="M5.39,45.49h1.27l5.62,12.63h-1.84l-1.67-3.72H3.42l-1.58,3.72H0l5.39-12.63Zm2.63,7.31l-2.02-4.55-1.88,4.55h3.9Zm16.22-7.24h1.67v12.56h-1.81v-9.77l-3.87,4.85h-.33l-3.9-4.85v9.77h-1.8v-12.56h1.69l4.18,5.16,4.16-5.16Zm9.21,12.56h-4.25v-12.56h3.29c1.04,0,1.85,.14,2.43,.42,.58,.28,1.03,.66,1.33,1.15,.31,.49,.46,1.06,.46,1.7,0,1.23-.64,2.12-1.91,2.65,.92,.17,1.65,.55,2.19,1.13,.54,.58,.81,1.28,.81,2.09,0,.64-.17,1.21-.49,1.72-.33,.5-.81,.91-1.45,1.23-.64,.32-1.44,.48-2.4,.48Zm-.91-10.96h-1.55v3.77h1.2c.96,0,1.64-.18,2.04-.55,.41-.37,.61-.84,.61-1.42,0-1.21-.77-1.81-2.3-1.81Zm.13,5.38h-1.68v3.98h1.77c.99,0,1.65-.08,2-.23,.35-.15,.63-.39,.85-.71,.21-.33,.32-.67,.32-1.04s-.11-.73-.34-1.05c-.23-.32-.55-.55-.96-.71-.41-.16-1.07-.23-1.96-.23Zm11.85-7.05h1.27l5.62,12.63h-1.84l-1.67-3.72h-5.34l-1.58,3.72h-1.84l5.39-12.63Zm2.63,7.31l-2.02-4.55-1.88,4.55h3.9Z"/>
    <text class="cls-1" transform="translate(129.57 58.27) scale(1 1.1)"><tspan x="0" y="0">I</tspan></text>
    <text class="cls-1" transform="translate(143.71 58.27) scale(1 1.1)"><tspan x="0" y="0">N</tspan></text>
    <text class="cls-1" transform="translate(133.4 58.22) scale(1 1.1)"><tspan x="0" y="0">N</tspan></text>
    <polygon class="cls-2" points="87.15 27.52 89.79 33.44 87.15 33.44 87.15 27.52"/>
    <polygon class="cls-2" points="69.86 0 74.91 0 84.11 20.67 84.11 31.67 69.86 0"/>
    <polygon class="cls-2" points="61.57 19.35 76.51 19.35 78.37 23.59 64.74 23.59 60.56 33.44 55.67 33.44 61.57 19.35"/>
    <polygon class="cls-2" points="87.15 27.52 89.79 33.44 87.15 33.44 87.15 27.52"/>
    <polygon class="cls-2" points="69.86 0 74.91 0 84.11 20.67 84.11 31.67 69.86 0"/>
    <polygon class="cls-2" points="61.57 19.35 76.51 19.35 78.37 23.59 64.74 23.59 60.56 33.44 55.67 33.44 61.57 19.35"/>
    <polygon class="cls-3" points="149.67 63.23 150.26 65.13 152.17 65.12 150.62 66.29 151.22 68.18 149.67 67.01 148.13 68.18 148.72 66.29 147.17 65.12 149.08 65.13 149.67 63.23"/>
    <polygon class="cls-3" points="142.23 63.23 142.82 65.13 144.73 65.12 143.19 66.29 143.78 68.18 142.23 67.01 140.69 68.18 141.28 66.29 139.73 65.12 141.65 65.13 142.23 63.23"/>
    <polygon class="cls-3" points="134.73 63.23 135.32 65.13 137.23 65.12 135.68 66.29 136.28 68.18 134.73 67.01 133.19 68.18 133.78 66.29 132.23 65.12 134.14 65.13 134.73 63.23"/>
  </g>
</svg>